<svg width="1280" height="720" xmlns="http://www.w3.org/2000/svg" xmlns:xlink="http://www.w3.org/1999/xlink" overflow="hidden"><defs><linearGradient x1="548.587" y1="540.478" x2="749.413" y2="180.522" gradientUnits="userSpaceOnUse" spreadMethod="reflect" id="fill0"><stop offset="0" stop-color="#FFF2B0"/><stop offset="0.5" stop-color="#FFF6CD"/><stop offset="1" stop-color="#FFFAE6"/></linearGradient><clipPath id="clip1"><rect x="723" y="328" width="34" height="9"/></clipPath><clipPath id="clip2"><rect x="723" y="328" width="34" height="9"/></clipPath><clipPath id="clip3"><rect x="725" y="383" width="18" height="10"/></clipPath><clipPath id="clip4"><rect x="725" y="383" width="18" height="10"/></clipPath><linearGradient x1="909" y1="301" x2="909" y2="404" gradientUnits="userSpaceOnUse" spreadMethod="reflect" id="fill5"><stop offset="0" stop-color="#82CAC3"/><stop offset="0.31" stop-color="#82CAC3"/><stop offset="0.89" stop-color="#FFBE7A"/><stop offset="1" stop-color="#FFBE7A"/></linearGradient><linearGradient x1="909" y1="301" x2="909" y2="404" gradientUnits="userSpaceOnUse" spreadMethod="reflect" id="fill6"><stop offset="0" stop-color="#69A29D"/><stop offset="0.31" stop-color="#69A29D"/><stop offset="0.89" stop-color="#CD9962"/><stop offset="1" stop-color="#CD9962"/></linearGradient><linearGradient x1="909" y1="301" x2="909" y2="404" gradientUnits="userSpaceOnUse" spreadMethod="reflect" id="fill7"><stop offset="0" stop-color="#9BD4CF"/><stop offset="0.31" stop-color="#9BD4CF"/><stop offset="0.89" stop-color="#FFCB94"/><stop offset="1" stop-color="#FFCB94"/></linearGradient><linearGradient x1="909" y1="298.586" x2="909" y2="406.414" gradientUnits="userSpaceOnUse" spreadMethod="reflect" id="stroke8"><stop offset="0" stop-color="#58B8AF"/><stop offset="0.00574713" stop-color="#59B7AE"/><stop offset="0.0114943" stop-color="#5AB7AE"/><stop offset="0.0172414" stop-color="#5BB7AE"/><stop offset="0.0229885" stop-color="#5CB7AE"/><stop offset="0.0287356" stop-color="#5DB7AE"/><stop offset="0.0344828" stop-color="#5EB7AE"/><stop offset="0.0402299" stop-color="#5FB7AE"/><stop offset="0.045977" stop-color="#60B7AE"/><stop offset="0.0517241" stop-color="#61B7AE"/><stop offset="0.0574713" stop-color="#62B7AE"/><stop offset="0.0632184" stop-color="#63B7AE"/><stop offset="0.0689655" stop-color="#64B7AD"/><stop offset="0.0747126" stop-color="#65B7AD"/><stop offset="0.0804598" stop-color="#66B7AD"/><stop offset="0.0862069" stop-color="#68B7AD"/><stop offset="0.091954" stop-color="#69B7AD"/><stop offset="0.0977011" stop-color="#6AB7AC"/><stop offset="0.103448" stop-color="#6BB7AC"/><stop offset="0.109195" stop-color="#6CB7AC"/><stop offset="0.114943" stop-color="#6DB7AB"/><stop offset="0.12069" stop-color="#6EB7AB"/><stop offset="0.126437" stop-color="#6FB7AB"/><stop offset="0.132184" stop-color="#70B7AB"/><stop offset="0.137931" stop-color="#71B7AA"/><stop offset="0.143678" stop-color="#71B6AA"/><stop offset="0.149425" stop-color="#72B6AA"/><stop offset="0.155172" stop-color="#73B6A9"/><stop offset="0.16092" stop-color="#74B6A9"/><stop offset="0.166667" stop-color="#75B6A8"/><stop offset="0.172414" stop-color="#76B6A8"/><stop offset="0.178161" stop-color="#77B6A8"/><stop offset="0.183908" stop-color="#78B6A7"/><stop offset="0.189655" stop-color="#79B6A7"/><stop offset="0.195402" stop-color="#7AB6A6"/><stop offset="0.201149" stop-color="#7BB6A6"/><stop offset="0.206897" stop-color="#7CB5A5"/><stop offset="0.212644" stop-color="#7DB5A5"/><stop offset="0.218391" stop-color="#7EB5A4"/><stop offset="0.224138" stop-color="#7EB5A4"/><stop offset="0.229885" stop-color="#7FB5A3"/><stop offset="0.235632" stop-color="#80B5A3"/><stop offset="0.241379" stop-color="#81B5A2"/><stop offset="0.247126" stop-color="#82B5A2"/><stop offset="0.252874" stop-color="#83B4A1"/><stop offset="0.258621" stop-color="#84B4A1"/><stop offset="0.264368" stop-color="#85B4A0"/><stop offset="0.270115" stop-color="#85B49F"/><stop offset="0.275862" stop-color="#86B49F"/><stop offset="0.281609" stop-color="#87B49E"/><stop offset="0.287356" stop-color="#88B49E"/><stop offset="0.293103" stop-color="#89B39D"/><stop offset="0.298851" stop-color="#8AB39C"/><stop offset="0.304598" stop-color="#8AB39C"/><stop offset="0.310345" stop-color="#8BB39B"/><stop offset="0.316092" stop-color="#8CB39A"/><stop offset="0.321839" stop-color="#8DB39A"/><stop offset="0.327586" stop-color="#8EB399"/><stop offset="0.333333" stop-color="#8EB298"/><stop offset="0.33908" stop-color="#8FB297"/><stop offset="0.344828" stop-color="#90B297"/><stop offset="0.350575" stop-color="#91B296"/><stop offset="0.356322" stop-color="#91B295"/><stop offset="0.362069" stop-color="#92B294"/><stop offset="0.367816" stop-color="#93B194"/><stop offset="0.373563" stop-color="#94B193"/><stop offset="0.37931" stop-color="#94B192"/><stop offset="0.385057" stop-color="#95B191"/><stop offset="0.390805" stop-color="#96B190"/><stop offset="0.396552" stop-color="#97B090"/><stop offset="0.402299" stop-color="#97B08F"/><stop offset="0.408046" stop-color="#98B08E"/><stop offset="0.413793" stop-color="#99B08D"/><stop offset="0.41954" stop-color="#99B08C"/><stop offset="0.425287" stop-color="#9AAF8B"/><stop offset="0.431034" stop-color="#9BAF8A"/><stop offset="0.436782" stop-color="#9BAF89"/><stop offset="0.442529" stop-color="#9CAF89"/><stop offset="0.448276" stop-color="#9DAF88"/><stop offset="0.454023" stop-color="#9DAE87"/><stop offset="0.45977" stop-color="#9EAE86"/><stop offset="0.465517" stop-color="#9FAE85"/><stop offset="0.471264" stop-color="#9FAE84"/><stop offset="0.477012" stop-color="#A0AE83"/><stop offset="0.482759" stop-color="#A1AD82"/><stop offset="0.488506" stop-color="#A1AD81"/><stop offset="0.494253" stop-color="#A2AD80"/><stop offset="0.5" stop-color="#A2AD7F"/><stop offset="0.505747" stop-color="#A3AC7E"/><stop offset="0.511494" stop-color="#A4AC7D"/><stop offset="0.517241" stop-color="#A4AC7C"/><stop offset="0.522988" stop-color="#A5AC7B"/><stop offset="0.528736" stop-color="#A5AB7A"/><stop offset="0.534483" stop-color="#A6AB78"/><stop offset="0.54023" stop-color="#A7AB77"/><stop offset="0.545977" stop-color="#A7AB76"/><stop offset="0.551724" stop-color="#A8AA75"/><stop offset="0.557471" stop-color="#A8AA74"/><stop offset="0.563218" stop-color="#A9AA73"/><stop offset="0.568965" stop-color="#A9AA72"/><stop offset="0.574713" stop-color="#AAA971"/><stop offset="0.58046" stop-color="#AAA96F"/><stop offset="0.586207" stop-color="#ABA96E"/><stop offset="0.591954" stop-color="#ABA96D"/><stop offset="0.597701" stop-color="#ACA86C"/><stop offset="0.603448" stop-color="#ACA86B"/><stop offset="0.609195" stop-color="#ADA869"/><stop offset="0.614943" stop-color="#ADA768"/><stop offset="0.62069" stop-color="#AEA767"/><stop offset="0.626437" stop-color="#AEA766"/><stop offset="0.632184" stop-color="#AFA764"/><stop offset="0.637931" stop-color="#AFA663"/><stop offset="0.643678" stop-color="#B0A662"/><stop offset="0.649425" stop-color="#B0A661"/><stop offset="0.655172" stop-color="#B1A55F"/><stop offset="0.66092" stop-color="#B1A55E"/><stop offset="0.666667" stop-color="#B1A55D"/><stop offset="0.672414" stop-color="#B2A45B"/><stop offset="0.678161" stop-color="#B2A45A"/><stop offset="0.683908" stop-color="#B3A459"/><stop offset="0.689655" stop-color="#B3A457"/><stop offset="0.695402" stop-color="#B3A356"/><stop offset="0.701149" stop-color="#B4A355"/><stop offset="0.706897" stop-color="#B4A353"/><stop offset="0.712644" stop-color="#B5A252"/><stop offset="0.718391" stop-color="#B5A250"/><stop offset="0.724138" stop-color="#B5A24F"/><stop offset="0.729885" stop-color="#B6A14E"/><stop offset="0.735632" stop-color="#B6A14C"/><stop offset="0.741379" stop-color="#B6A14B"/><stop offset="0.747126" stop-color="#B7A049"/><stop offset="0.752874" stop-color="#B7A048"/><stop offset="0.758621" stop-color="#B7A046"/><stop offset="0.764368" stop-color="#B89F45"/><stop offset="0.770115" stop-color="#B89F43"/><stop offset="0.775862" stop-color="#B89F42"/><stop offset="0.781609" stop-color="#B99E40"/><stop offset="0.787356" stop-color="#B99E3F"/><stop offset="0.793103" stop-color="#B99E3D"/><stop offset="0.798851" stop-color="#B99D3C"/><stop offset="0.804598" stop-color="#BA9D3A"/><stop offset="0.810345" stop-color="#BA9D39"/><stop offset="0.816092" stop-color="#BA9C37"/><stop offset="0.821839" stop-color="#BA9C35"/><stop offset="0.827586" stop-color="#BB9B34"/><stop offset="0.833333" stop-color="#BB9B32"/><stop offset="0.83908" stop-color="#BB9B31"/><stop offset="0.844828" stop-color="#BB9A2F"/><stop offset="0.850575" stop-color="#BC9A2D"/><stop offset="0.856322" stop-color="#BC9A2C"/><stop offset="0.862069" stop-color="#BC992A"/><stop offset="0.867816" stop-color="#BC9928"/><stop offset="0.873563" stop-color="#BC9827"/><stop offset="0.87931" stop-color="#BD9825"/><stop offset="0.885057" stop-color="#BD9823"/><stop offset="0.890805" stop-color="#BD9722"/><stop offset="0.896552" stop-color="#BD9720"/><stop offset="0.902299" stop-color="#BD971E"/><stop offset="0.908046" stop-color="#BD961C"/><stop offset="0.913793" stop-color="#BD961B"/><stop offset="0.91954" stop-color="#BE9519"/><stop offset="0.925287" stop-color="#BE9517"/><stop offset="0.931035" stop-color="#BE9515"/><stop offset="0.936782" stop-color="#BE9414"/><stop offset="0.942529" stop-color="#BE9412"/><stop offset="0.948276" stop-color="#BE9310"/><stop offset="0.954023" stop-color="#BE930E"/><stop offset="0.95977" stop-color="#BE920C"/><stop offset="0.965517" stop-color="#BE920B"/><stop offset="0.971264" stop-color="#BE9209"/><stop offset="0.977012" stop-color="#BE9107"/><stop offset="0.982759" stop-color="#BE9105"/><stop offset="0.988506" stop-color="#BE9003"/><stop offset="0.994253" stop-color="#BE9001"/><stop offset="1" stop-color="#BF9000"/></linearGradient></defs><g><rect x="0" y="0" width="1280" height="720" fill="#FFFFFF"/><rect x="375" y="282.747" width="9.25345" height="70.2534" fill="#8ECFC9"/><path d="M384.253 282.747 417 250 417 320.253 384.253 353Z" fill="#72A6A2" fill-rule="evenodd"/><path d="M375 282.747 407.747 250 417 250 384.253 282.747Z" fill="#A4D8D4" fill-rule="evenodd"/><path d="M375 282.747 407.747 250 417 250 417 320.253 384.253 353 375 353ZM375 282.747 384.253 282.747 417 250M384.253 282.747 384.253 353" stroke="#58B8AF" stroke-width="2" stroke-miterlimit="8" fill="none" fill-rule="evenodd"/><rect x="372" y="421.179" width="23.8214" height="34.8214" fill="#FFBE7A"/><path d="M395.821 421.179 413 404 413 438.821 395.821 456Z" fill="#CD9962" fill-rule="evenodd"/><path d="M372 421.179 389.179 404 413 404 395.821 421.179Z" fill="#FFCB94" fill-rule="evenodd"/><path d="M372 421.179 389.179 404 413 404 413 438.821 395.821 456 372 456ZM372 421.179 395.821 421.179 413 404M395.821 421.179 395.821 456" stroke="#BF9000" stroke-width="2" stroke-miterlimit="8" fill="none" fill-rule="evenodd"/><path d="M437.5 281.834C437.5 260.111 455.111 242.5 476.834 242.5L821.166 242.5C842.89 242.5 860.5 260.111 860.5 281.834L860.5 439.166C860.5 460.889 842.89 478.5 821.166 478.5L476.834 478.5C455.111 478.5 437.5 460.889 437.5 439.166Z" stroke="#595959" stroke-width="2.66667" stroke-linecap="square" stroke-miterlimit="8" stroke-dasharray="8 2.66667" fill="url(#fill0)" fill-rule="evenodd"/><path d="M625.5 371.5C625.5 366.53 629.306 362.5 634 362.5 638.694 362.5 642.5 366.53 642.5 371.5 642.5 376.471 638.694 380.5 634 380.5 629.306 380.5 625.5 376.471 625.5 371.5Z" stroke="#595959" stroke-width="2.66667" stroke-miterlimit="8" fill="#FFFFFF" fill-rule="evenodd"/><path d="M627.5 376.365C629.464 376.565 631.428 376.765 632.784 375.213 634.14 373.66 634.35 368.668 635.636 367.051 636.922 365.435 639.787 365.467 640.5 365.515" stroke="#595959" stroke-width="2.66667" stroke-miterlimit="8" fill="none" fill-rule="evenodd"/><path d="M454.5 302.167 703.834 302.167 703.834 304.833 454.5 304.833ZM454.5 307.5C452.291 307.5 450.5 305.709 450.5 303.5 450.5 301.291 452.291 299.5 454.5 299.5 456.709 299.5 458.5 301.291 458.5 303.5 458.5 305.709 456.709 307.5 454.5 307.5ZM702.501 299.5 710.501 303.5 702.501 307.5Z" fill="#595959"/><path d="M0.00461302-1.33333 251.998-0.461482 251.989 2.20517-0.00461302 1.33333ZM-0.0138391 3.99998C-2.22297 3.99233-4.00762 2.19529-3.99998-0.0138391-3.99233-2.22297-2.19529-4.00762 0.0138391-3.99998 2.22297-3.99233 4.00762-2.19529 3.99998 0.0138391 3.99233 2.22297 2.19529 4.00762-0.0138391 3.99998ZM250.674-3.13275 258.66 0.894908 250.646 4.86721Z" fill="#595959" transform="matrix(1 0 0 -1 454.5 431.395)"/><rect x="476" y="265" width="26" height="74" stroke="#58B8AF" stroke-width="1.66667" stroke-linejoin="round" stroke-miterlimit="10" fill="#8ECFC9"/><text font-family="Cambria Math,Cambria Math_MSFontService,sans-serif" font-weight="400" font-size="14" transform="matrix(6.12323e-17 1 -1 6.12323e-17 483.295 286)">ReLU</text><rect x="528" y="265" width="32" height="74" stroke="#58B8AF" stroke-width="1.66667" stroke-linejoin="round" stroke-miterlimit="10" fill="#8ECFC9"/><text font-family="Cambria Math,Cambria Math_MSFontService,sans-serif" font-weight="400" font-size="14" transform="matrix(6.12323e-17 1 -1 6.12323e-17 546.563 287)">Conv</text><text font-family="Cambria Math,Cambria Math_MSFontService,sans-serif" font-weight="400" font-size="14" transform="matrix(6.12323e-17 1 -1 6.12323e-17 530.563 289)">3</text><text font-family="Cambria Math,Cambria Math_MSFontService,sans-serif" font-weight="400" font-size="14" transform="matrix(6.12323e-17 1 -1 6.12323e-17 530.563 297)">×</text><text font-family="Cambria Math,Cambria Math_MSFontService,sans-serif" font-weight="400" font-size="14" transform="matrix(6.12323e-17 1 -1 6.12323e-17 530.563 307)">3</text><rect x="476" y="393" width="26" height="74" stroke="#BF9000" stroke-width="1.66667" stroke-linejoin="round" stroke-miterlimit="10" fill="#FFBE7A"/><text font-family="Cambria Math,Cambria Math_MSFontService,sans-serif" font-weight="400" font-size="14" transform="matrix(6.12323e-17 1 -1 6.12323e-17 483.295 414)">ReLU</text><rect x="527" y="393" width="32" height="74" stroke="#BF9000" stroke-width="1.66667" stroke-linejoin="round" stroke-miterlimit="10" fill="#FFBE7A"/><text font-family="Cambria Math,Cambria Math_MSFontService,sans-serif" font-weight="400" font-size="14" transform="matrix(6.12323e-17 1 -1 6.12323e-17 546.982 415)">Conv</text><text font-family="Cambria Math,Cambria Math_MSFontService,sans-serif" font-weight="400" font-size="14" transform="matrix(6.12323e-17 1 -1 6.12323e-17 529.982 417)">1</text><text font-family="Cambria Math,Cambria Math_MSFontService,sans-serif" font-weight="400" font-size="14" transform="matrix(6.12323e-17 1 -1 6.12323e-17 529.982 425)">×</text><text font-family="Cambria Math,Cambria Math_MSFontService,sans-serif" font-weight="400" font-size="14" transform="matrix(6.12323e-17 1 -1 6.12323e-17 529.982 435)">1</text><path d="M713.5 430.5C713.5 425.53 717.306 421.5 722 421.5 726.694 421.5 730.5 425.53 730.5 430.5 730.5 435.471 726.694 439.5 722 439.5 717.306 439.5 713.5 435.471 713.5 430.5Z" stroke="#595959" stroke-width="2.66667" stroke-miterlimit="8" fill="#FFFFFF" fill-rule="evenodd"/><path d="M0 0 12.4802 12.5808" stroke="#595959" stroke-width="2.66667" stroke-miterlimit="8" fill="#FFFFFF" fill-rule="evenodd" transform="matrix(-1 0 0 1 727.98 424.5)"/><path d="M715.5 424.5 728.129 437.081" stroke="#595959" stroke-width="2.66667" stroke-miterlimit="8" fill="#FFFFFF" fill-rule="evenodd"/><path d="M0.00110325-1.33333 23.1518-1.31418 23.1496 1.35249-0.00110325 1.33333ZM21.8206-3.98195 29.8173 0.0246719 21.814 4.01805Z" fill="#595959" transform="matrix(1 0 0 -1 595.5 371.525)"/><path d="M587.833 303.5 587.833 356.643 585.167 356.643 585.167 303.5ZM590.5 355.31 586.5 363.31 582.5 355.31Z" fill="#595959"/><path d="M1.34334 6.66467 1.40766 49.5088-1.259 49.5128-1.32332 6.66868ZM-3.98799 8.006 0 0 4.01201 7.99399Z" fill="#595959" transform="matrix(-1 0 0 1 586.574 380.5)"/><path d="M577.5 371.5C577.5 366.53 581.529 362.5 586.5 362.5 591.471 362.5 595.5 366.53 595.5 371.5 595.5 376.471 591.471 380.5 586.5 380.5 581.529 380.5 577.5 376.471 577.5 371.5Z" stroke="#595959" stroke-width="2.66667" stroke-miterlimit="8" fill="#FFFFFF" fill-rule="evenodd"/><path d="M0 0 12.4802 12.5808" stroke="#595959" stroke-width="2.66667" stroke-miterlimit="8" fill="#FFFFFF" fill-rule="evenodd" transform="matrix(-1 0 0 1 592.98 364.5)"/><path d="M580.5 364.5 593.129 377.081" stroke="#595959" stroke-width="2.66667" stroke-miterlimit="8" fill="#FFFFFF" fill-rule="evenodd"/><path d="M710.5 302.5C710.5 297.53 714.529 293.5 719.5 293.5 724.471 293.5 728.5 297.53 728.5 302.5 728.5 307.471 724.471 311.5 719.5 311.5 714.529 311.5 710.5 307.471 710.5 302.5Z" stroke="#595959" stroke-width="2.66667" stroke-miterlimit="8" fill="#FFFFFF" fill-rule="evenodd"/><path d="M0 0 12.4802 12.5808" stroke="#595959" stroke-width="2.66667" stroke-miterlimit="8" fill="#FFFFFF" fill-rule="evenodd" transform="matrix(-1 0 0 1 725.98 295.5)"/><path d="M712.5 295.5 725.129 308.081" stroke="#595959" stroke-width="2.66667" stroke-miterlimit="8" fill="#FFFFFF" fill-rule="evenodd"/><rect x="674" y="356.153" width="4.84705" height="39.8471" fill="#FA7F6F"/><path d="M678.847 356.153 696 339 696 378.847 678.847 396Z" fill="#C96659" fill-rule="evenodd"/><path d="M674 356.153 691.153 339 696 339 678.847 356.153Z" fill="#FB988B" fill-rule="evenodd"/><path d="M674 356.153 691.153 339 696 339 696 378.847 678.847 396 674 396ZM674 356.153 678.847 356.153 696 339M678.847 356.153 678.847 396" stroke="#C55B5B" stroke-width="2" stroke-miterlimit="8" fill="none" fill-rule="evenodd"/><path d="M0.00110325-1.33333 23.1518-1.31418 23.1496 1.35249-0.00110325 1.33333ZM21.8206-3.98195 29.8173 0.0246719 21.814 4.01805Z" fill="#595959" transform="matrix(1 0 0 -1 642.5 371.525)"/><path d="M0.172559-1.32212 2.29956-1.04451C2.40384-1.0309 2.50618-1.00499 2.60437-0.967339L4.71474-0.158135C4.79568-0.127098 4.87344-0.0882193 4.94684-0.0420925L7.02392 1.26327C7.08242 1.30003 7.1382 1.34146 7.1903 1.38685L9.21747 3.15292 11.2959 5.46055 13.2579 8.1465 16.7839 14.4734 19.7639 21.9533 22.0512 30.2673 23.5229 39.1446 23.6725 41.6556 21.0101 41.8061 20.8918 39.5786 19.4794 30.9723 17.2853 22.9368 14.4528 15.7684 11.1014 9.71506 9.30857 7.23864 7.46578 5.16357 5.43861 3.3975 5.60499 3.52108 3.5279 2.21572 3.76 2.33176 1.64964 1.52256 1.95445 1.59973-0.172559 1.32212ZM26.2596 40.1738 22.7176 48.3869 18.2724 40.6254Z" fill="#44546A" transform="matrix(1 0 0 -1 696.5 359.887)"/><path d="M696.699 358.182 699.068 358.539C699.186 358.557 699.301 358.59 699.409 358.639L701.76 359.681C701.846 359.719 701.927 359.766 702.003 359.821L704.317 361.502C704.375 361.544 704.429 361.59 704.479 361.641L706.737 363.915 709.029 366.861 711.194 370.291 713.227 374.162 715.115 378.434 718.393 387.971 720.925 398.623 722.554 410 722.809 415.087 720.145 415.217 719.914 410.376 718.331 399.238 715.871 388.837 712.676 379.51 710.864 375.4 708.937 371.711 706.92 368.493 704.845 365.794 702.587 363.52 702.749 363.659 700.436 361.978 700.679 362.119 698.329 361.076 698.67 361.176 696.301 360.818ZM725.407 413.625 721.802 421.81 717.417 414.015Z" fill="#44546A"/><path d="M0.00253008-1.33333 72.0664-1.19659 72.0613 1.47008-0.00253008 1.33333ZM70.7381-3.86578 78.7305 0.149396 70.7229 4.13421Z" fill="#595959" transform="matrix(1 0 0 -1 728.5 302.649)"/><g clip-path="url(#clip1)"><g clip-path="url(#clip2)"></g></g><g clip-path="url(#clip3)"><g clip-path="url(#clip4)"></g></g><path d="M806.5 302.5C806.5 297.53 810.529 293.5 815.5 293.5 820.471 293.5 824.5 297.53 824.5 302.5 824.5 307.471 820.471 311.5 815.5 311.5 810.529 311.5 806.5 307.471 806.5 302.5Z" stroke="#595959" stroke-width="2.66667" stroke-miterlimit="8" fill="#FFFFFF" fill-rule="evenodd"/><path d="M806.5 302.5 824.15 302.5" stroke="#595959" stroke-width="2.66667" stroke-miterlimit="8" fill="none" fill-rule="evenodd"/><path d="M815.5 293.5 815.5 311.222" stroke="#595959" stroke-width="2.66667" stroke-miterlimit="8" fill="none" fill-rule="evenodd"/><path d="M0-1.33333 86.3038-1.33333 86.3038 113.041 83.6372 113.041 83.6372 0 84.9705 1.33333 0 1.33333ZM88.9705 111.708 84.9705 119.708 80.9705 111.708Z" fill="#595959" transform="matrix(1 0 0 -1 730.5 431.208)"/><path d="M0-1.33333 2.07966-1.33333 2.07966 49.5421 0.746323 48.2087 348.716 48.2087 347.383 49.5421 347.383 16.2088 350.05 16.2088 350.05 50.8754-0.58701 50.8754-0.58701 0 0.746323 1.33333 0 1.33333ZM344.716 17.5422 348.716 9.54215 352.716 17.5422Z" fill="#595959" transform="matrix(1 0 0 -1 466.5 303.042)"/><path d="M8.13256e-06-1.33333 17.2126-1.33323 17.2126 1.33344-8.13256e-06 1.33333ZM17.2126-3.99989C19.4218-3.99988 21.2126-2.20901 21.2126 0.000129385 21.2126 2.20927 19.4217 4.00012 17.2126 4.0001 15.0034 4.00009 13.2126 2.20922 13.2126 8.05892e-05 13.2126-2.20906 15.0035-3.99991 17.2126-3.99989Z" fill="#595959" transform="matrix(1 0 0 -1 824.5 302.5)"/><rect x="888" y="333.747" width="9.25342" height="70.2534" fill="url(#fill5)"/><path d="M897.253 333.747 930 301 930 371.253 897.253 404Z" fill="url(#fill6)" fill-rule="evenodd"/><path d="M888 333.747 920.747 301 930 301 897.253 333.747Z" fill="url(#fill7)" fill-rule="evenodd"/><path d="M888 333.747 920.747 301 930 301 930 371.253 897.253 404 888 404ZM888 333.747 897.253 333.747 930 301M897.253 333.747 897.253 404" stroke="url(#stroke8)" stroke-width="2" stroke-miterlimit="8" fill="none" fill-rule="evenodd"/><path d="M5.005e-06-1.33333 21.3018-1.33325 21.3018 1.33341-5.005e-06 1.33333ZM19.9685-3.99992 27.9685 0.000104987 19.9685 4.00007Z" fill="#595959" transform="matrix(1 0 0 -1 408.5 302.5)"/><path d="M408.5 429.167 429.707 429.167 429.707 431.833 408.5 431.833ZM428.374 426.5 436.374 430.5 428.374 434.5Z" fill="#595959"/><path d="M860.5 359.167 881.802 359.167 881.802 361.833 860.5 361.833ZM880.469 356.5 888.469 360.5 880.469 364.5Z" fill="#595959"/></g></svg>